# cube.obj
#
 
g cube
 
v  0.0  0.0  0.0
v  0.0  0.0  1.0
v  0.0  1.0  0.0
v  0.0  1.0  1.0
v  1.0  0.0  0.0
v  1.0  0.0  1.0
v  1.0  1.0  0.0
v  1.0  1.0  1.0

vn  0.0  0.0  1.0
vn  0.0  0.0 -1.0
vn  0.0  1.0  0.0
vn  0.0 -1.0  0.0
vn  1.0  0.0  0.0
vn -1.0  0.0  0.0
 
f  1//2  7//2  5//2
f  1//2  3//2  7//2
f  1//6  4//6  3//6 
f  1//6  2//6  4//6
f  3//3  8//3  7//3
f  3//3  4//3  8//3
f  5//5  7//5  8//5
f  5//5  8//5  6//5
f  1//4  5//4  6//4
f  1//4  6//4  2//4
f  2//1  6//1  8//1
f  2//1  8//1  4//1



0 6 6 4 4 0 
0 2 2 6 6 0
0 3 3 2 2 0
0 1 1 3 3 0 
2 7 7 6 6 2
2 3 3 7 7 2
4 6 6 7 7 4 
4 7 7 5 5 4 
0 4 4 5 5 0 
0 5 5 1 1 0 
1 5 5 7 7 1 
1 7 7 3 3 1 